<?xml version="1.0" encoding="UTF-8" standalone="no"?>
<!-- Created with Inkscape (http://www.inkscape.org/) -->

<svg
   xmlns:dc="http://purl.org/dc/elements/1.1/"
   xmlns:cc="http://creativecommons.org/ns#"
   xmlns:rdf="http://www.w3.org/1999/02/22-rdf-syntax-ns#"
   xmlns:svg="http://www.w3.org/2000/svg"
   xmlns="http://www.w3.org/2000/svg"
   xmlns:sodipodi="http://sodipodi.sourceforge.net/DTD/sodipodi-0.dtd"
   xmlns:inkscape="http://www.inkscape.org/namespaces/inkscape"
   version="1.1"
   id="svg2"
   xml:space="preserve"
   width="178.31371"
   height="132.63455"
   viewBox="0 0 178.3137 132.63455"
   sodipodi:docname="TU_Logo_kurz_Pantone_black_uncoated.svg"
   inkscape:version="0.92.4 (unknown)"
   inkscape:export-filename="/home/andy/Documents/CAD/AppCVRobot/hardware/parts/logos/TU_Logo_kurz_Pantone_black_uncoated.pdf.png"
   inkscape:export-xdpi="275.10001"
   inkscape:export-ydpi="275.10001"><metadata
     id="metadata8"><rdf:RDF><cc:Work
         rdf:about=""><dc:format>image/svg+xml</dc:format><dc:type
           rdf:resource="http://purl.org/dc/dcmitype/StillImage" /><dc:title></dc:title></cc:Work></rdf:RDF></metadata><defs
     id="defs6"><clipPath
       clipPathUnits="userSpaceOnUse"
       id="clipPath20"><path
         d="M 0,0 H 1337.93 V 994.824 H 0 Z"
         id="path18"
         inkscape:connector-curvature="0" /></clipPath></defs><sodipodi:namedview
     pagecolor="#ffffff"
     bordercolor="#666666"
     borderopacity="1"
     objecttolerance="10"
     gridtolerance="10"
     guidetolerance="10"
     inkscape:pageopacity="0"
     inkscape:pageshadow="2"
     inkscape:window-width="1920"
     inkscape:window-height="1055"
     id="namedview4"
     showgrid="false"
     inkscape:zoom="1.2515791"
     inkscape:cx="258.22207"
     inkscape:cy="-15.542104"
     inkscape:window-x="1920"
     inkscape:window-y="0"
     inkscape:window-maximized="1"
     inkscape:current-layer="g12"
     inkscape:snap-page="true"
     fit-margin-top="0"
     fit-margin-left="0"
     fit-margin-right="0"
     fit-margin-bottom="0" /><g
     id="g10"
     inkscape:groupmode="layer"
     inkscape:label="TU_Logo_kurz_Pantone_black_uncoated"
     transform="matrix(1.3333333,0,0,-1.3333333,327.50151,62.583434)"><g
       id="g12"
       transform="scale(0.1)"><path
         style="fill:#000000;stroke-width:2.61818218"
         d="m -1501.1632,-521.6967 c 0,2.0898 19.44,206.1331 43.2,453.429507 23.76,247.296403 43.2,450.590173 43.2,451.763953 0,1.17378 66.5673,2.13415 147.9273,2.13415 81.36,0 147.9273,-0.76344 147.9273,-1.69652 0,-16.22094 -61.4333,-640.32139 -64.2353,-652.56679 -31.8585,-139.2251 -138.7101,-237.0397 -277.4375,-253.9731 -32.209,-3.9315 -40.5818,-3.744 -40.5818,0.9088 z m 269.5096,365.059 c 1.4516,2.7123 3.9236,13.2092 5.4933,23.3263 6.4444,41.535397 -11.9797,63.814057 -52.6668,63.685477 -30.9891,-0.0979 -49.5051,-14.69918 -49.5263,-39.055077 -0.011,-11.8015 5.4037,-25.2954 11.0624,-27.5722 1.8303,-0.7364 -10.976,-1.4319 -28.4585,-1.5456 l -31.7863,-0.2066 -1.2305,-9.8182 c -0.6768,-5.4 -0.7362,-10.7018 -0.132,-11.7818 0.6043,-1.08 33.3877,-1.9636 72.852,-1.9636 67.5952,0 71.9063,0.2858 74.3927,4.9315 z m -59.1841,20.4515 c -9.9993,1.9495 -19.1982,12.7412 -19.1982,22.5226 0,13.45535 7.3319,18.509427 28.5945,19.710867 29.5877,1.67186 41.7956,-8.850217 38.2007,-32.925567 l -1.6615,-11.1272 -20.1305,0.3565 c -11.0718,0.1961 -22.684,0.8544 -25.805,1.4628 z m 53.2164,92.332927 c 17.8696,10.54334 23.9866,23.79459 24.2188,52.4659398 0.1909,23.5702102 -1.3593,26.7784502 -11.9195,24.6664202 -7.5887,-1.51774 -7.8253,-1.98553 -6.3054,-12.46711 3.9273,-27.0843302 -5.1965,-44.88114 -24.6253,-48.03403 l -10.0808,-1.63589 1.7545,18.08077 c 0.965,9.94440978 2.4769,24.85529 3.3597,33.1353 l 1.6052,15.05454 h -12.067 c -15.6303,0 -31.8677,-6.59886 -38.2327,-15.53763 -2.7757,-3.89813 -6.3893,-12.4192102 -8.0302,-18.9357402 -5.5008,-21.8455298 4.2435,-40.6150498 26.2354,-50.5348398 13.0737,-5.89717 41.0277,-3.96304 54.0873,3.74227 z m -52.7783,18.83468 c -2.88,1.57526 -6.709,4.71006 -8.509,6.96625 -8.034,10.0700798 0.3426,29.98007 13.6865,32.53091 7.5265,1.43877 7.724,0.37823 4.9223,-26.4273 -1.7933,-17.15716 -2.041,-17.47767 -10.0998,-13.06986 z m 82.6149,98.17615 1.4512,10.87216 -32.025,0.90966 c -27.5714,0.78315 -33.0527,1.67404 -39.4148,6.40612 -5.3194,3.95646 -7.6176,8.17446 -8.2025,15.054553 -0.7858,9.24372 -1.1518,9.55809 -11.1273,9.55809 -10.0966,0 -10.3146,-0.19914 -10.3146,-9.42229 0,-7.090063 1.9412,-11.235673 7.8426,-16.748383 l 7.8426,-7.32612 -8.4972,0.38477 c -8.2022,0.37139 -8.5252,-0.003 -9.305,-10.79961 l -0.8079,-11.18435 50.5534,0.71162 50.5533,0.71162 z m 7.2084,73.564223 0.8051,11.12727 h -74.4414 -74.4415 l -1.6364,-8.18182 c -3.3143,-16.57175 -8.5302,-15.52574 73.6364,-14.76743 l 75.2727,0.69471 z m -119.9323,42.54546 c 6.2896,6.28961 6.7255,13.84589 1.122,19.44935 -5.6034,5.60348 -13.1597,5.16754 -19.4493,-1.12207 -6.3018,-6.30176 -6.5472,-10.0543 -1.1607,-17.74471 5.0594,-7.22325 12.6212,-7.44928 19.488,-0.58257 z m 124.0835,1.52323 c 0.8741,2.27777 1.5892,7.57959 1.5892,11.78182 v 7.64041 h -51.0546 -51.0545 l -0.036,-5.89091 c -0.021,-3.24 -0.7462,-8.54182 -1.6145,-11.78182 l -1.5787,-5.89091 h 51.0798 c 44.1629,0 51.295,0.56081 52.669,4.14141 z m 5.2363,52.36364 c 0.8741,2.27778 1.5893,7.57959 1.5893,11.78182 v 7.64041 l -30.7637,0.01 c -26.1275,0.008 -32.0558,0.79762 -39.338,5.23757 -15.8739,9.67836 -16.8381,28.34529 -1.7601,34.07794 3.7114,1.41119 22.5768,2.56572 41.9231,2.56572 h 35.175 v 10.47273 10.47272 h -42.9991 c -42.3713,0 -43.116,-0.0984 -51.0051,-6.73658 -14.9769,-12.60226 -16.1949,-37.9872 -2.5211,-52.54237 l 5.8017,-6.1756 h -8.3109 c -4.571,0 -8.3109,-1.03091 -8.3109,-2.29091 0,-1.26 -0.7364,-5.97273 -1.6364,-10.47273 l -1.6364,-8.18182 h 51.1017 c 44.1828,0 51.3169,0.56073 52.6909,4.14141 z m -403.919,-755.31631 c -122.0534,32.1633 -196.8661,94.7416 -220.3773,184.3385 -10.9412,41.6945 -9.9685,64.4551 12.6201,295.321087 11.2428,114.9066 19.9068,209.455703 19.2534,210.109123 -0.6534,0.65339 -125.5844,1.21842 -277.6244,1.2556 l -276.4363,0.0676 -17.1696,5.85334 c -65.2675,22.25057 -105.5913,82.03812 -101.0759,149.86417 4.0876,61.40133 48.7087,115.29193 108.1507,130.61783 14.305,3.68827 56.212,4.14342 378.3272,4.10901 401.9661,-0.043 378.62,0.94791 414.334,-17.58518 37.8895,-19.662 65.2315,-57.26011 73.9973,-101.75372 l 4.1623,-21.12729 -39.6765,-413.456733 c -21.822,-227.401237 -40.3646,-418.464037 -41.2057,-424.584037 -0.8411,-6.12 -2.8682,-11.072 -4.5047,-11.0045 -1.6365,0.068 -16.3851,3.6563 -32.7746,7.9752 z m -598.9192,81.5748 c 0.852,6.12 12.809,129.5346 26.5711,274.2546 13.7622,144.720007 25.5922,265.77821 26.2891,269.01821 l 1.2669,5.89091 h 130.8593 c 95.5214,0 130.8592,-0.79883 130.8592,-2.9582 0,-1.62702 -11.7818,-125.2416732 -26.1818,-274.69922 -14.4,-149.4575 -26.1819,-274.1918 -26.1819,-277.1873 0,-5.4445 -0.043,-5.4463 -132.5154,-5.4463 h -132.5155 z"
         id="path896"
         inkscape:connector-curvature="0" /></g></g></svg>